<?xml version="1.0" encoding="utf-8"?>

<!DOCTYPE svg PUBLIC "-//W3C//DTD SVG 1.0//EN" "http://www.w3.org/TR/2001/REC-SVG-20010904/DTD/svg10.dtd">
<!-- Uploaded to: SVG Repo, www.svgrepo.com, Generator: SVG Repo Mixer Tools -->
<svg
      version="1.0"
      id="Layer_1"
      xmlns="http://www.w3.org/2000/svg"
      xmlns:xlink="http://www.w3.org/1999/xlink"
      width="800px"
      height="800px"
      viewBox="0 0 64 64"
      enable-background="new 0 0 64 64"
      xml:space="preserve"
      className="m-auto w-75 h-75"
    >
      <g>
        <path
          fill="#231F20"
          d="M32,4C16.536,4,4,16.536,4,32s12.536,28,28,28s28-12.536,28-28S47.464,4,32,4z M51.075,49.66l-2.103-2.104
		c-0.393-0.39-1.025-0.39-1.415,0c-0.391,0.392-0.391,1.023,0,1.415l2.104,2.104c-4.409,4.085-10.235,6.657-16.66,6.9l0.001-2.974
		c-0.002-0.553-0.449-1-1-1c-0.554,0.001-1,0.447-1,1l-0.001,2.974c-6.425-0.243-12.251-2.814-16.66-6.898l2.104-2.104
		c0.39-0.392,0.39-1.024,0-1.414c-0.393-0.391-1.023-0.391-1.414,0l-2.104,2.104c-4.084-4.409-6.656-10.235-6.9-16.66h2.974
		c0.553-0.001,1-0.448,1-1c-0.001-0.554-0.447-1-1-1H6.025c0.243-6.425,2.814-12.252,6.898-16.661l2.104,2.104
		c0.391,0.391,1.023,0.391,1.414,0c0.391-0.392,0.391-1.023,0-1.414l-2.104-2.104c4.409-4.085,10.236-6.657,16.661-6.9V9
		c0,0.553,0.447,1,1,1s1-0.447,1-1V6.025c6.425,0.243,12.252,2.814,16.661,6.899l-2.104,2.104c-0.391,0.391-0.391,1.023,0,1.414
		s1.023,0.391,1.414,0l2.105-2.104c4.084,4.409,6.656,10.236,6.899,16.661H55c-0.553,0-1,0.447-1,1s0.447,1,1,1h2.975
		C57.731,39.425,55.16,45.251,51.075,49.66z"
        />
      </g>
</svg>